<!-- Generated by IcoMoon.io -->
<svg version="1.1" xmlns="http://www.w3.org/2000/svg" width="64" height="32" viewBox="0 0 64 32">
<title>cubo</title>
<path fill="#afb1b8" d="M32.257 16.601c-0.268-0.356-0.396-0.777-0.365-1.201v-1.741c0-0.534 0.121-0.939 0.363-1.217s0.658-0.416 1.247-0.414c0.554 0 0.947 0.118 1.179 0.354 0.254 0.301 0.377 0.67 0.349 1.041v0.409h-0.991v-0.414c0.004-0.136-0.006-0.271-0.029-0.406-0.014-0.092-0.064-0.177-0.142-0.241-0.102-0.069-0.23-0.103-0.359-0.094-0.136-0.009-0.27 0.027-0.377 0.099-0.086 0.071-0.144 0.164-0.164 0.266-0.028 0.142-0.041 0.286-0.039 0.43v2.113c-0.016 0.204 0.028 0.408 0.127 0.593 0.049 0.063 0.118 0.113 0.198 0.144s0.168 0.043 0.256 0.033c0.127 0.009 0.253-0.025 0.351-0.096 0.081-0.069 0.133-0.159 0.148-0.257 0.023-0.14 0.033-0.282 0.031-0.423v-0.429h0.991v0.391c0.028 0.387-0.093 0.772-0.343 1.094-0.228 0.259-0.615 0.388-1.186 0.388s-1.001-0.138-1.245-0.425z"></path>
<path fill="#afb1b8" d="M36.382 16.619c-0.25-0.271-0.375-0.666-0.375-1.188v-1.831c0-0.517 0.125-0.909 0.375-1.174s0.669-0.398 1.255-0.397c0.583 0 0.999 0.132 1.249 0.397 0.25 0.266 0.377 0.657 0.377 1.174v1.831c0 0.517-0.127 0.914-0.382 1.186s-0.669 0.409-1.245 0.409c-0.576 0-1.003-0.138-1.255-0.407zM38.098 16.179c0.090-0.17 0.13-0.356 0.119-0.542v-2.242c0.011-0.183-0.029-0.365-0.117-0.531-0.050-0.064-0.12-0.115-0.202-0.146s-0.172-0.042-0.261-0.031c-0.089-0.011-0.18 0-0.262 0.031s-0.153 0.082-0.204 0.146c-0.090 0.166-0.131 0.348-0.119 0.531v2.253c-0.013 0.186 0.028 0.372 0.119 0.542 0.058 0.057 0.129 0.103 0.209 0.134s0.167 0.048 0.255 0.048c0.088 0 0.175-0.016 0.255-0.048s0.151-0.077 0.209-0.134v-0.011z"></path>
<path fill="#afb1b8" d="M40.455 12.082h1.067l0.802 3.378 0.82-3.378h1.038l0.105 4.877h-0.767l-0.082-3.389-0.792 3.389h-0.615l-0.82-3.402-0.076 3.402h-0.775l0.096-4.877z"></path>
<path fill="#afb1b8" d="M45.482 12.082h1.661c0.957 0 1.436 0.462 1.436 1.385 0 0.884-0.504 1.326-1.512 1.325h-0.566v2.167h-1.026l0.006-4.877zM46.902 14.166c0.101 0.011 0.204 0.003 0.302-0.024s0.187-0.071 0.262-0.131c0.118-0.165 0.169-0.358 0.148-0.551 0.005-0.149-0.011-0.298-0.049-0.443-0.015-0.048-0.040-0.094-0.075-0.134s-0.079-0.073-0.13-0.098c-0.142-0.059-0.3-0.086-0.457-0.078h-0.398v1.457h0.398z"></path>
<path fill="#afb1b8" d="M50.059 12.082h1.101l1.13 4.877h-0.956l-0.224-1.124h-0.983l-0.23 1.124h-0.97l1.13-4.877zM51 15.269l-0.384-2.047-0.384 2.047h0.767z"></path>
<path fill="#afb1b8" d="M53.203 12.082h0.718l1.374 2.782v-2.782h0.851v4.877h-0.683l-1.382-2.904v2.904h-0.88l0.002-4.877z"></path>
<path fill="#afb1b8" d="M58.14 15.099l-1.143-3.010h0.962l0.697 1.934 0.654-1.934h0.941l-1.128 3.010v1.859h-0.984v-1.859z"></path>
<path fill="#afb1b8" d="M33.84 19.090v0.255h-0.837v1.982h-0.351v-1.982h-0.841v-0.255h2.029z"></path>
<path fill="#afb1b8" d="M36.464 21.327h-0.271c-0.027 0.002-0.055-0.006-0.076-0.021-0.020-0.013-0.036-0.031-0.045-0.051l-0.242-0.531h-1.161l-0.242 0.531c-0.007 0.022-0.020 0.043-0.037 0.060-0.021 0.015-0.048 0.022-0.076 0.021h-0.271l1.026-2.236h0.357l1.038 2.228zM34.765 20.497h0.968l-0.41-0.91c-0.030-0.069-0.056-0.139-0.076-0.211-0.014 0.043-0.027 0.083-0.039 0.119l-0.037 0.094-0.406 0.908z"></path>
<path fill="#afb1b8" d="M38.232 21.108c0.064 0.003 0.129 0.003 0.193 0 0.056-0.005 0.11-0.014 0.164-0.027 0.050-0.011 0.1-0.024 0.148-0.041 0.045-0.016 0.090-0.035 0.137-0.055v-0.503h-0.41c-0.010 0-0.020-0.001-0.030-0.004s-0.018-0.008-0.026-0.014c-0.007-0.005-0.012-0.011-0.016-0.018s-0.005-0.015-0.005-0.022v-0.172h0.796v0.857c-0.065 0.040-0.134 0.076-0.205 0.106-0.073 0.031-0.149 0.057-0.228 0.076-0.084 0.021-0.17 0.037-0.256 0.046-0.099 0.010-0.199 0.014-0.299 0.014-0.177 0.001-0.352-0.027-0.517-0.083-0.154-0.053-0.293-0.133-0.41-0.234-0.114-0.102-0.204-0.222-0.265-0.354-0.065-0.148-0.097-0.306-0.094-0.464-0.002-0.159 0.029-0.318 0.092-0.468 0.059-0.133 0.149-0.253 0.265-0.354 0.117-0.101 0.257-0.18 0.41-0.232 0.176-0.057 0.362-0.085 0.55-0.083 0.096-0 0.191 0.006 0.285 0.019 0.083 0.012 0.165 0.031 0.244 0.057 0.072 0.023 0.141 0.053 0.205 0.088 0.063 0.035 0.123 0.074 0.178 0.117l-0.098 0.138c-0.008 0.013-0.019 0.023-0.033 0.031s-0.030 0.012-0.047 0.012c-0.023-0.001-0.045-0.007-0.064-0.018-0.031-0.014-0.064-0.032-0.101-0.053-0.044-0.024-0.090-0.044-0.137-0.060-0.061-0.021-0.124-0.038-0.189-0.050-0.086-0.014-0.173-0.020-0.261-0.019-0.135-0.001-0.27 0.020-0.396 0.062-0.114 0.040-0.217 0.1-0.302 0.177-0.085 0.080-0.15 0.175-0.191 0.278-0.092 0.242-0.092 0.503 0 0.746 0.045 0.105 0.115 0.201 0.205 0.282 0.084 0.077 0.186 0.137 0.299 0.177 0.13 0.039 0.269 0.054 0.406 0.044z"></path>
<path fill="#afb1b8" d="M41.501 21.072h1.12v0.255h-1.462v-2.237h0.351l-0.008 1.982z"></path>
<path fill="#afb1b8" d="M43.786 21.327h-0.351v-2.237h0.351v2.237z"></path>
<path fill="#afb1b8" d="M45.091 19.101c0.021 0.010 0.039 0.024 0.053 0.041l1.499 1.686c-0.002-0.026-0.002-0.053 0-0.080 0-0.025 0-0.050 0-0.073v-1.594h0.306v2.246h-0.176c-0.026 0.002-0.052-0.002-0.076-0.012-0.021-0.011-0.040-0.026-0.055-0.043l-1.497-1.684c0 0.026 0 0.051 0 0.076s0 0.048 0 0.069v1.594h-0.293v-2.237h0.183c0.020 0 0.039 0.004 0.057 0.011z"></path>
<path fill="#afb1b8" d="M49.531 19.090v0.246h-1.243v0.738h1.007v0.237h-1.007v0.763h1.243v0.246h-1.604v-2.231h1.604z"></path>
<path fill="#afb1b8" d="M12.777 5.278l15.574 3.818v13.378l-15.574-3.816v-13.38zM11.778 4.138v15.17l17.57 4.308v-15.169l-17.57-4.31z"></path>
<path fill="#afb1b8" d="M21.195 30.659l-17.572-4.312v-15.169l17.572 4.31v15.171z"></path>
<path fill="#afb1b8" d="M12.069 5.107l15.371 3.77-6.537 5.645-15.373-3.772 6.539-5.643zM11.778 4.138l-8.155 7.041 17.572 4.31 8.153-7.041-17.57-4.31z"></path>
<path fill="#afb1b8" d="M22.183 29.806l7.165-6.187-7.165-1.758v7.945z"></path>
</svg>
