<!-- Generated by IcoMoon.io -->
<svg version="1.1" xmlns="http://www.w3.org/2000/svg" width="64" height="32" viewBox="0 0 64 32">
<title>escarba</title>
<path fill="#afb1b8" d="M21.981 29.699c0.010 0 0.019 0.002 0.028 0.006s0.017 0.008 0.023 0.014l0.132 0.126c-0.102 0.102-0.229 0.183-0.37 0.239-0.166 0.061-0.345 0.090-0.525 0.086-0.169 0.003-0.337-0.024-0.494-0.080-0.141-0.051-0.268-0.128-0.372-0.226-0.106-0.101-0.188-0.22-0.24-0.349-0.058-0.144-0.086-0.295-0.084-0.448-0.002-0.153 0.028-0.306 0.090-0.449 0.058-0.13 0.144-0.249 0.255-0.349 0.112-0.098 0.247-0.176 0.395-0.227 0.162-0.055 0.335-0.082 0.509-0.080 0.162-0.003 0.322 0.021 0.472 0.073 0.13 0.049 0.25 0.117 0.354 0.202l-0.11 0.134c-0.008 0.009-0.017 0.018-0.028 0.024-0.013 0.008-0.029 0.011-0.044 0.010-0.017-0.001-0.034-0.006-0.048-0.014l-0.059-0.036-0.082-0.046c-0.036-0.017-0.072-0.032-0.11-0.044-0.049-0.015-0.099-0.027-0.15-0.036-0.065-0.010-0.13-0.015-0.196-0.014-0.125-0.001-0.249 0.019-0.365 0.060-0.108 0.038-0.206 0.096-0.286 0.169-0.082 0.078-0.145 0.169-0.186 0.269-0.046 0.114-0.069 0.234-0.067 0.355-0.002 0.123 0.021 0.245 0.067 0.36 0.040 0.099 0.102 0.19 0.183 0.268 0.075 0.073 0.169 0.129 0.273 0.166 0.107 0.039 0.223 0.058 0.339 0.057 0.067 0.001 0.134-0.003 0.201-0.011 0.109-0.012 0.213-0.044 0.305-0.096 0.046-0.026 0.090-0.056 0.13-0.089 0.017-0.014 0.039-0.022 0.063-0.023z"></path>
<path fill="#afb1b8" d="M25.784 29.066c0.002 0.152-0.028 0.303-0.089 0.445-0.054 0.129-0.138 0.247-0.248 0.345s-0.242 0.176-0.389 0.227c-0.322 0.107-0.679 0.107-1.001 0-0.146-0.052-0.277-0.129-0.387-0.227-0.11-0.1-0.195-0.219-0.25-0.349-0.119-0.288-0.119-0.603 0-0.891 0.056-0.13 0.141-0.249 0.25-0.35 0.11-0.095 0.242-0.17 0.387-0.219 0.322-0.109 0.679-0.109 1.001 0 0.146 0.052 0.279 0.129 0.388 0.227 0.108 0.099 0.193 0.217 0.249 0.345 0.061 0.143 0.091 0.295 0.089 0.448zM25.438 29.066c0.003-0.121-0.019-0.242-0.063-0.358-0.037-0.099-0.097-0.19-0.176-0.267-0.077-0.073-0.172-0.131-0.278-0.169-0.234-0.078-0.493-0.078-0.728 0-0.106 0.038-0.201 0.095-0.278 0.169-0.080 0.077-0.141 0.168-0.178 0.267-0.084 0.233-0.084 0.482 0 0.715 0.037 0.099 0.098 0.19 0.178 0.267 0.077 0.073 0.172 0.13 0.278 0.167 0.235 0.076 0.493 0.076 0.728 0 0.106-0.037 0.201-0.094 0.278-0.167 0.079-0.078 0.139-0.169 0.176-0.267 0.044-0.115 0.065-0.236 0.063-0.358z"></path>
<path fill="#afb1b8" d="M28.378 29.441l0.035 0.080c0.013-0.029 0.025-0.054 0.038-0.080 0.013-0.027 0.027-0.053 0.043-0.079l0.841-1.329c0.016-0.023 0.031-0.037 0.048-0.041 0.022-0.006 0.046-0.008 0.069-0.007h0.249v2.161h-0.295v-1.589c0-0.020 0-0.043 0-0.067-0.002-0.025-0.002-0.050 0-0.074l-0.846 1.347c-0.011 0.020-0.028 0.037-0.049 0.049s-0.047 0.018-0.072 0.018h-0.048c-0.026 0-0.051-0.006-0.072-0.018s-0.039-0.029-0.049-0.049l-0.871-1.356c0 0.026 0 0.052 0 0.077s0 0.049 0 0.069v1.589h-0.285v-2.157h0.249c0.023-0.001 0.047 0.001 0.069 0.007 0.020 0.009 0.037 0.023 0.046 0.041l0.859 1.33c0.017 0.025 0.031 0.050 0.043 0.077z"></path>
<path fill="#afb1b8" d="M31.544 29.334v0.809h-0.329v-2.158h0.734c0.139-0.002 0.277 0.014 0.41 0.047 0.107 0.026 0.205 0.072 0.29 0.134 0.073 0.058 0.13 0.131 0.165 0.212 0.039 0.088 0.058 0.182 0.056 0.276 0.001 0.095-0.019 0.189-0.061 0.276-0.040 0.083-0.1 0.157-0.178 0.216-0.084 0.065-0.184 0.114-0.291 0.143-0.128 0.036-0.262 0.052-0.397 0.050l-0.398-0.006zM31.544 29.102h0.398c0.087 0.001 0.173-0.010 0.255-0.033 0.068-0.020 0.131-0.052 0.184-0.093 0.049-0.040 0.088-0.088 0.112-0.143 0.027-0.058 0.040-0.119 0.039-0.182 0.004-0.060-0.007-0.12-0.033-0.176s-0.065-0.106-0.115-0.147c-0.126-0.085-0.284-0.127-0.443-0.116h-0.398v0.89z"></path>
<path fill="#afb1b8" d="M35.969 30.146h-0.26c-0.026 0.001-0.052-0.006-0.072-0.020-0.019-0.013-0.033-0.031-0.043-0.050l-0.224-0.522h-1.124l-0.232 0.522c-0.008 0.019-0.023 0.036-0.041 0.049-0.021 0.015-0.047 0.022-0.074 0.021h-0.26l0.988-2.161h0.342l1.001 2.161zM34.339 29.344h0.928l-0.392-0.88c-0.030-0.066-0.055-0.134-0.074-0.203l-0.038 0.113c-0.012 0.034-0.025 0.066-0.036 0.092l-0.388 0.878z"></path>
<path fill="#afb1b8" d="M37.391 27.995c0.020 0.009 0.037 0.023 0.049 0.039l1.44 1.629c0-0.026 0-0.051 0-0.076s0-0.049 0-0.072v-1.53h0.295v2.161h-0.165c-0.023 0.001-0.047-0.004-0.068-0.013-0.020-0.010-0.038-0.024-0.053-0.040l-1.439-1.628c0.002 0.025 0.002 0.050 0 0.074 0 0.024 0 0.046 0 0.066v1.54h-0.295v-2.161h0.175c0.020-0 0.041 0.003 0.059 0.010z"></path>
<path fill="#afb1b8" d="M41.602 29.287v0.858h-0.329v-0.858l-0.91-1.302h0.295c0.025-0.001 0.050 0.005 0.071 0.019 0.018 0.014 0.033 0.030 0.044 0.049l0.57 0.84c0.023 0.036 0.043 0.069 0.059 0.1s0.030 0.062 0.041 0.092l0.043-0.093c0.016-0.034 0.035-0.067 0.056-0.099l0.561-0.845c0.012-0.017 0.026-0.032 0.043-0.046 0.020-0.015 0.045-0.022 0.071-0.021h0.298l-0.912 1.307z"></path>
<path fill="#afb1b8" d="M28.215 24.358c0.143 0.016 0.288 0.029 0.435 0.040 2.221-0.863 4.1-2.276 5.402-4.062s1.969-3.866 1.918-5.98l-2.448-2.127c0.498 2.25 0.265 4.577-0.672 6.719s-2.542 4.015-4.635 5.41z"></path>
<path fill="#afb1b8" d="M27.341 24.259l0.066 0.011c2.236-1.39 3.941-3.331 4.895-5.571s1.111-4.678 0.452-6.998l-3.487-3.029c1.41 2.49 1.978 5.277 1.637 8.036s-1.576 5.378-3.563 7.551z"></path>
<path fill="#afb1b8" d="M39.166 16.854c-0.592 2.322-2.031 4.417-4.102 5.973-0.605 0.457-1.257 0.864-1.949 1.216 1.687-0.431 3.237-1.192 4.531-2.226s2.298-2.312 2.934-3.735l-1.414-1.227z"></path>
<path fill="#afb1b8" d="M38.611 16.512l-2.013-1.749c-0.038 1.994-0.691 3.943-1.89 5.644s-2.9 3.092-4.927 4.029h0.010c0.452-0 0.903-0.024 1.352-0.070 1.894-0.672 3.568-1.741 4.871-3.111s2.196-3 2.598-4.743z"></path>
<path fill="#afb1b8" d="M27.632 7.395l-2.402-2.090c-2.147 0.721-3.994 1.988-5.298 3.636s-2.006 3.599-2.013 5.599v0c0.008 2.21 0.864 4.354 2.433 6.094s3.76 2.975 6.228 3.511c2.203-2.332 3.493-5.213 3.682-8.225s-0.732-5.998-2.63-8.525z"></path>
<path fill="#afb1b8" d="M44.16 16.19c-0.009-2.622-1.211-5.134-3.345-6.988s-5.025-2.899-8.043-2.906c-1.394-0.001-2.777 0.222-4.078 0.659l14.705 12.777c0.504-1.129 0.761-2.33 0.761-3.541z"></path>
</svg>
