<!-- Generated by IcoMoon.io -->
<svg version="1.1" xmlns="http://www.w3.org/2000/svg" width="64" height="32" viewBox="0 0 64 32">
<title>hoja</title>
<path fill="#afb1b8" d="M16.155 27.062c0.147 0.167 0.226 0.376 0.221 0.59 0.008 0.14-0.019 0.279-0.079 0.408s-0.15 0.244-0.264 0.337c-0.286 0.198-0.64 0.294-0.997 0.272h-1.753v-3.738h1.717c0.339-0.021 0.675 0.067 0.951 0.248 0.111 0.085 0.199 0.192 0.256 0.314s0.084 0.253 0.077 0.386c0.010 0.206-0.061 0.409-0.199 0.572-0.133 0.149-0.317 0.251-0.523 0.292 0.233 0.039 0.442 0.152 0.592 0.32zM14.099 26.498h0.734c0.167 0.011 0.332-0.033 0.467-0.124 0.055-0.046 0.098-0.102 0.125-0.166s0.038-0.132 0.032-0.2c0.005-0.068-0.006-0.135-0.033-0.199s-0.069-0.12-0.123-0.167c-0.138-0.094-0.309-0.139-0.481-0.126h-0.722v0.981zM15.371 27.932c0.059-0.047 0.105-0.105 0.135-0.171s0.043-0.137 0.038-0.208c0.004-0.072-0.009-0.144-0.040-0.211s-0.078-0.126-0.138-0.173c-0.144-0.098-0.32-0.145-0.499-0.135h-0.77v1.028h0.78c0.176 0.009 0.349-0.036 0.493-0.13z"></path>
<path fill="#afb1b8" d="M19.665 28.67l-0.955-1.461h-0.359v1.461h-0.822v-3.738h1.556c0.392-0.025 0.78 0.089 1.083 0.318 0.217 0.203 0.349 0.47 0.37 0.754s-0.069 0.565-0.254 0.793c-0.192 0.201-0.454 0.336-0.742 0.38l1.017 1.494h-0.894zM18.351 26.699h0.672c0.467 0 0.7-0.189 0.7-0.566 0.005-0.077-0.008-0.154-0.038-0.227s-0.075-0.138-0.134-0.194c-0.148-0.112-0.337-0.167-0.529-0.152h-0.68l0.008 1.138z"></path>
<path fill="#afb1b8" d="M24.157 27.917h-1.637l-0.289 0.752h-0.862l1.504-3.696h0.931l1.498 3.696h-0.862l-0.283-0.752zM23.938 27.351l-0.598-1.578-0.598 1.578h1.197z"></path>
<path fill="#afb1b8" d="M29.78 28.669h-0.816l-1.829-2.542v2.542h-0.814v-3.738h0.814l1.829 2.557v-2.557h0.816v3.738z"></path>
<path fill="#afb1b8" d="M34.435 27.775c-0.169 0.282-0.426 0.512-0.738 0.659-0.355 0.164-0.749 0.245-1.147 0.236h-1.452v-3.738h1.452c0.397-0.009 0.791 0.070 1.147 0.23 0.312 0.144 0.57 0.371 0.738 0.652 0.168 0.304 0.255 0.64 0.255 0.981s-0.087 0.677-0.255 0.981zM33.501 27.685c0.233-0.248 0.361-0.565 0.361-0.892s-0.128-0.644-0.361-0.892c-0.281-0.225-0.648-0.339-1.021-0.318h-0.566v2.42h0.566c0.373 0.021 0.74-0.093 1.021-0.318z"></path>
<path fill="#afb1b8" d="M24.668 4.138c0 0 10.529 3.64 10.306 8.906v8.908c0 0-10.521-3.641-10.302-8.908l-0.004-8.906z"></path>
<path fill="#afb1b8" d="M44.353 19.867c1.989-1.253 4.289-2.029 6.69-2.257v-2.789c-2.767 0.976-5.113 2.747-6.69 5.046z"></path>
<path fill="#afb1b8" d="M43.159 20.707c1.628-3.001 4.449-5.316 7.884-6.47v-8.035c0 0-14.995 5.185-14.678 12.685v12.683c0 0 0.668-0.232 1.719-0.667 0-0.405 0-0.814 0.048-1.225 0.31-3.482 2.118-6.709 5.026-8.97z"></path>
<path fill="#afb1b8" d="M41.733 25.419c0.079-0.88 0.255-1.75 0.525-2.597-1.811 1.953-2.907 4.377-3.135 6.93-0.022 0.241-0.034 0.482-0.040 0.73 0.852-0.374 1.843-0.842 2.884-1.392-0.266-1.208-0.344-2.444-0.233-3.672z"></path>
<path fill="#afb1b8" d="M42.329 25.465c-0.1 1.111-0.038 2.23 0.185 3.326 4.097-2.244 8.7-5.712 8.523-9.904v-0.365c-2.927 0.3-5.665 1.471-7.795 3.335-0.498 1.155-0.806 2.371-0.913 3.609z"></path>
</svg>
