<!-- Generated by IcoMoon.io -->
<svg version="1.1" xmlns="http://www.w3.org/2000/svg" width="64" height="32" viewBox="0 0 64 32">
<title>Logo</title>
<path fill="#afb1b8" d="M22.943 4.279l4.231 4.005-7.854-0.005v19.434h20.528v-7.43l4.226 4.001v-20.005h-21.132zM39.663 19.813l-11.997-11.357h11.997v11.357zM35.938 24.871h-13.369v-13.070h0.945v12.185h12.424v0.885zM25.726 30.301l-0.494 1.017-0.494-1.017h-0.414l0.721 1.356v0.79h0.374v-0.79l0.719-1.356h-0.413zM26.347 32.447l0.174-0.5h0.831l0.175 0.5h0.389l-0.812-2.146h-0.335l-0.811 2.146h0.388zM26.936 30.757l0.311 0.89h-0.622l0.311-0.89zM28.903 31.595c-0.054 0.083-0.081 0.173-0.081 0.273 0 0.181 0.063 0.328 0.19 0.441 0.128 0.112 0.298 0.168 0.51 0.168s0.395-0.057 0.548-0.172l0.121 0.143h0.416l-0.315-0.373c0.124-0.169 0.186-0.386 0.186-0.65h-0.311c0 0.144-0.030 0.276-0.090 0.394l-0.414-0.489 0.146-0.106c0.103-0.075 0.177-0.149 0.223-0.224s0.068-0.158 0.068-0.248c0-0.136-0.050-0.249-0.15-0.34-0.099-0.092-0.227-0.139-0.383-0.139-0.173 0-0.311 0.049-0.413 0.147s-0.153 0.23-0.153 0.398c0 0.069 0.016 0.14 0.049 0.214s0.092 0.163 0.175 0.268c-0.159 0.114-0.266 0.213-0.32 0.296zM29.871 32.070c-0.105 0.081-0.218 0.121-0.339 0.121-0.107 0-0.193-0.031-0.256-0.093s-0.096-0.142-0.096-0.242c0-0.115 0.059-0.217 0.177-0.307l0.046-0.032 0.469 0.553zM29.486 31.119c-0.101-0.125-0.152-0.228-0.152-0.311 0-0.072 0.021-0.131 0.062-0.178s0.097-0.071 0.167-0.071c0.065 0 0.118 0.020 0.161 0.060s0.063 0.087 0.063 0.143c0 0.084-0.030 0.154-0.091 0.208l-0.046 0.037-0.164 0.112zM32.98 32.285c0.147-0.129 0.232-0.308 0.254-0.537h-0.371c-0.020 0.153-0.066 0.263-0.14 0.329s-0.184 0.099-0.33 0.099c-0.16 0-0.282-0.061-0.366-0.183s-0.124-0.299-0.124-0.531v-0.19c0.002-0.229 0.046-0.402 0.133-0.52 0.087-0.119 0.212-0.178 0.374-0.178 0.14 0 0.245 0.034 0.317 0.103 0.073 0.068 0.118 0.179 0.136 0.333h0.371c-0.024-0.235-0.108-0.417-0.252-0.545s-0.335-0.193-0.572-0.193c-0.176 0-0.331 0.042-0.466 0.125-0.134 0.084-0.236 0.202-0.308 0.357s-0.108 0.333-0.108 0.535v0.201c0.003 0.198 0.040 0.371 0.111 0.52s0.171 0.265 0.301 0.346c0.131 0.081 0.282 0.121 0.453 0.121 0.245 0 0.441-0.064 0.588-0.192zM35.172 31.984c0.073-0.159 0.109-0.344 0.109-0.554v-0.119c-0.001-0.209-0.038-0.393-0.112-0.55s-0.178-0.279-0.314-0.363c-0.135-0.084-0.289-0.127-0.464-0.127s-0.33 0.043-0.466 0.128c-0.135 0.084-0.239 0.207-0.314 0.367s-0.111 0.345-0.111 0.554v0.121c0.001 0.205 0.038 0.387 0.112 0.544s0.18 0.279 0.315 0.364c0.137 0.084 0.292 0.127 0.466 0.127 0.176 0 0.331-0.042 0.466-0.127 0.136-0.086 0.24-0.207 0.313-0.366zM34.772 30.771c0.090 0.127 0.136 0.309 0.136 0.547v0.112c0 0.242-0.045 0.426-0.134 0.551s-0.215 0.189-0.38 0.189c-0.163 0-0.291-0.064-0.383-0.193s-0.137-0.311-0.137-0.547v-0.124c0.002-0.231 0.048-0.409 0.139-0.535 0.091-0.127 0.218-0.19 0.379-0.19 0.165 0 0.292 0.063 0.382 0.19z"></path>
</svg>
