<!-- Generated by IcoMoon.io -->
<svg version="1.1" xmlns="http://www.w3.org/2000/svg" width="64" height="32" viewBox="0 0 64 32">
<title>ubi</title>
<path fill="#2196f3" d="M14.579 12.794h-0.002c-1.448 0-2.622 1.043-2.622 2.33v0.002c0 1.287 1.174 2.33 2.622 2.33h0.002c1.448 0 2.622-1.043 2.622-2.33v-0.002c0-1.287-1.174-2.33-2.622-2.33z"></path>
<path fill="#2196f3" d="M33.929 12.049c-0.004-1.787-0.805-3.5-2.226-4.764s-3.349-1.976-5.36-1.98v0c-2.012 0.003-3.94 0.715-5.362 1.979s-2.224 2.977-2.228 4.765v9.855c0 0 15.175-1.502 15.177-9.854v-0.002z"></path>
<path fill="#2196f3" d="M6.641 25.139c0.004 1.244 0.561 2.435 1.55 3.315s2.33 1.375 3.729 1.379c1.399-0.004 2.739-0.499 3.729-1.378s1.547-2.070 1.551-3.314v-6.857c0 0-10.559 1.046-10.559 6.856zM11.921 26.368c-0.273 0-0.541-0.072-0.768-0.207s-0.405-0.327-0.509-0.551c-0.105-0.225-0.132-0.472-0.079-0.71s0.185-0.457 0.378-0.629c0.193-0.172 0.44-0.289 0.708-0.336s0.546-0.023 0.799 0.070c0.253 0.093 0.469 0.25 0.62 0.453s0.233 0.44 0.233 0.683c0.001 0.162-0.035 0.322-0.104 0.472s-0.171 0.286-0.299 0.4c-0.128 0.115-0.281 0.205-0.449 0.268s-0.348 0.094-0.53 0.094v-0.005z"></path>
<path fill="#2196f3" d="M21.573 24.168v2.575h-0.531v-2.575h0.531zM22.599 25.268v0.414h-1.171v-0.414h1.171zM22.723 24.168v0.416h-1.295v-0.416h1.295zM25.146 25.396v0.122c0 0.196-0.026 0.371-0.080 0.527s-0.128 0.288-0.225 0.398c-0.097 0.108-0.212 0.192-0.347 0.249-0.133 0.058-0.281 0.087-0.444 0.087-0.162 0-0.31-0.029-0.444-0.087-0.133-0.058-0.249-0.141-0.347-0.249-0.098-0.11-0.174-0.242-0.228-0.398-0.053-0.156-0.080-0.331-0.080-0.527v-0.122c0-0.197 0.027-0.373 0.080-0.527 0.053-0.156 0.128-0.288 0.225-0.398 0.098-0.11 0.213-0.193 0.347-0.251 0.134-0.058 0.282-0.087 0.444-0.087 0.163 0 0.311 0.029 0.444 0.087 0.134 0.058 0.25 0.142 0.347 0.251 0.098 0.11 0.173 0.242 0.226 0.398 0.054 0.154 0.081 0.33 0.081 0.527zM24.61 25.518v-0.126c0-0.137-0.012-0.257-0.037-0.361s-0.061-0.191-0.11-0.262c-0.048-0.071-0.107-0.124-0.177-0.159-0.070-0.037-0.149-0.055-0.239-0.055s-0.169 0.018-0.239 0.055c-0.068 0.035-0.127 0.088-0.175 0.159-0.047 0.071-0.083 0.158-0.108 0.262s-0.037 0.224-0.037 0.361v0.126c0 0.136 0.012 0.256 0.037 0.361 0.025 0.104 0.061 0.192 0.11 0.264 0.048 0.071 0.107 0.124 0.177 0.161s0.149 0.055 0.239 0.055c0.090 0 0.169-0.018 0.239-0.055s0.128-0.090 0.175-0.161c0.047-0.072 0.083-0.16 0.108-0.264 0.025-0.105 0.037-0.225 0.037-0.361zM26.869 26.070c0-0.046-0.007-0.087-0.021-0.124-0.013-0.038-0.038-0.072-0.074-0.103-0.037-0.032-0.088-0.063-0.154-0.094s-0.152-0.063-0.256-0.096c-0.117-0.038-0.228-0.080-0.333-0.127-0.104-0.047-0.196-0.102-0.276-0.164-0.079-0.064-0.141-0.137-0.187-0.221-0.045-0.084-0.067-0.181-0.067-0.292 0-0.107 0.024-0.205 0.071-0.292 0.047-0.088 0.113-0.164 0.198-0.226 0.085-0.064 0.185-0.113 0.301-0.147 0.117-0.034 0.245-0.051 0.384-0.051 0.19 0 0.355 0.034 0.497 0.103s0.251 0.162 0.329 0.281c0.079 0.119 0.119 0.255 0.119 0.409h-0.527c0-0.075-0.016-0.141-0.048-0.198-0.031-0.058-0.078-0.103-0.142-0.136-0.063-0.033-0.142-0.049-0.237-0.049-0.092 0-0.169 0.014-0.23 0.042-0.061 0.027-0.107 0.064-0.138 0.111-0.031 0.046-0.046 0.098-0.046 0.156 0 0.044 0.011 0.083 0.032 0.119 0.022 0.035 0.055 0.068 0.099 0.099s0.097 0.060 0.161 0.087c0.064 0.027 0.137 0.054 0.221 0.080 0.14 0.042 0.264 0.090 0.37 0.143 0.107 0.053 0.197 0.113 0.269 0.179s0.126 0.141 0.163 0.225c0.037 0.084 0.055 0.179 0.055 0.285 0 0.112-0.022 0.212-0.065 0.301s-0.107 0.163-0.189 0.225-0.181 0.108-0.295 0.14c-0.114 0.032-0.242 0.048-0.384 0.048-0.127 0-0.253-0.016-0.377-0.049-0.124-0.034-0.236-0.085-0.338-0.154-0.1-0.068-0.18-0.156-0.241-0.262s-0.090-0.232-0.090-0.377h0.532c0 0.080 0.012 0.148 0.037 0.203s0.060 0.1 0.104 0.134c0.046 0.034 0.1 0.059 0.163 0.074 0.064 0.015 0.133 0.023 0.209 0.023 0.092 0 0.167-0.013 0.226-0.039 0.060-0.026 0.104-0.062 0.133-0.108 0.029-0.046 0.044-0.098 0.044-0.156zM28.912 24.168v2.575h-0.529v-2.575h0.529zM29.704 24.168v0.416h-2.101v-0.416h2.101zM31.735 26.33v0.414h-1.371v-0.414h1.371zM30.538 24.168v2.575h-0.531v-2.575h0.531zM31.556 25.217v0.403h-1.192v-0.403h1.192zM31.733 24.168v0.416h-1.369v-0.416h1.369zM32.045 24.168h0.96c0.197 0 0.366 0.029 0.508 0.088 0.143 0.059 0.252 0.146 0.329 0.262s0.115 0.258 0.115 0.426c0 0.138-0.024 0.256-0.071 0.355-0.046 0.098-0.111 0.18-0.196 0.246-0.084 0.065-0.182 0.117-0.295 0.156l-0.168 0.088h-0.835l-0.004-0.414h0.621c0.093 0 0.17-0.016 0.232-0.049s0.107-0.079 0.138-0.138c0.032-0.059 0.048-0.127 0.048-0.205 0-0.083-0.015-0.154-0.046-0.214s-0.077-0.106-0.14-0.138c-0.063-0.032-0.141-0.048-0.235-0.048h-0.43v2.16h-0.531v-2.575zM33.484 26.744l-0.587-1.148 0.561-0.004 0.594 1.127v0.025h-0.568zM36.27 25.825h-0.656v-0.414h0.656c0.101 0 0.184-0.017 0.248-0.049 0.064-0.034 0.11-0.081 0.14-0.142s0.044-0.128 0.044-0.203c0-0.077-0.015-0.148-0.044-0.214s-0.076-0.119-0.14-0.159-0.146-0.060-0.248-0.060h-0.472v2.16h-0.531v-2.575h1.003c0.202 0 0.374 0.037 0.518 0.11 0.145 0.072 0.256 0.172 0.333 0.299s0.115 0.273 0.115 0.437c0 0.166-0.038 0.31-0.115 0.432s-0.187 0.215-0.333 0.281c-0.144 0.066-0.317 0.099-0.518 0.099zM39.331 26.33v0.414h-1.371v-0.414h1.371zM38.133 24.168v2.575h-0.531v-2.575h0.531zM39.152 25.217v0.403h-1.192v-0.403h1.192zM39.329 24.168v0.416h-1.369v-0.416h1.369zM40.827 24.168v2.575h-0.529v-2.575h0.529zM41.62 24.168v0.416h-2.101v-0.416h2.101zM43.65 26.33v0.414h-1.371v-0.414h1.371zM42.453 24.168v2.575h-0.531v-2.575h0.531zM43.472 25.217v0.403h-1.192v-0.403h1.192zM43.648 24.168v0.416h-1.369v-0.416h1.369zM43.96 24.168h0.96c0.197 0 0.366 0.029 0.508 0.088 0.143 0.059 0.252 0.146 0.329 0.262s0.115 0.258 0.115 0.426c0 0.138-0.024 0.256-0.071 0.355-0.046 0.098-0.111 0.18-0.196 0.246-0.084 0.065-0.182 0.117-0.295 0.156l-0.168 0.088h-0.835l-0.004-0.414h0.621c0.093 0 0.17-0.016 0.232-0.049s0.107-0.079 0.138-0.138c0.032-0.059 0.048-0.127 0.048-0.205 0-0.083-0.015-0.154-0.046-0.214s-0.077-0.106-0.14-0.138c-0.063-0.032-0.141-0.048-0.235-0.048h-0.43v2.16h-0.531v-2.575zM45.4 26.744l-0.587-1.148 0.561-0.004 0.594 1.127v0.025h-0.568zM47.621 26.070c0-0.046-0.007-0.087-0.021-0.124-0.013-0.038-0.038-0.072-0.074-0.103-0.037-0.032-0.088-0.063-0.154-0.094s-0.152-0.063-0.256-0.096c-0.117-0.038-0.228-0.080-0.333-0.127-0.104-0.047-0.196-0.102-0.276-0.164-0.079-0.064-0.141-0.137-0.187-0.221-0.045-0.084-0.067-0.181-0.067-0.292 0-0.107 0.024-0.205 0.071-0.292 0.047-0.088 0.113-0.164 0.198-0.226 0.085-0.064 0.185-0.113 0.301-0.147 0.117-0.034 0.245-0.051 0.384-0.051 0.19 0 0.355 0.034 0.497 0.103s0.251 0.162 0.329 0.281c0.079 0.119 0.119 0.255 0.119 0.409h-0.527c0-0.075-0.016-0.141-0.048-0.198-0.031-0.058-0.078-0.103-0.142-0.136-0.063-0.033-0.142-0.049-0.237-0.049-0.092 0-0.169 0.014-0.23 0.042-0.061 0.027-0.107 0.064-0.138 0.111-0.031 0.046-0.046 0.098-0.046 0.156 0 0.044 0.011 0.083 0.032 0.119 0.022 0.035 0.055 0.068 0.099 0.099s0.097 0.060 0.161 0.087c0.064 0.027 0.137 0.054 0.221 0.080 0.14 0.042 0.264 0.090 0.37 0.143 0.107 0.053 0.197 0.113 0.269 0.179s0.126 0.141 0.163 0.225c0.037 0.084 0.055 0.179 0.055 0.285 0 0.112-0.022 0.212-0.065 0.301s-0.107 0.163-0.189 0.225-0.181 0.108-0.295 0.14c-0.114 0.032-0.242 0.048-0.384 0.048-0.127 0-0.253-0.016-0.377-0.049-0.124-0.034-0.236-0.085-0.338-0.154-0.1-0.068-0.18-0.156-0.241-0.262s-0.090-0.232-0.090-0.377h0.532c0 0.080 0.012 0.148 0.037 0.203s0.060 0.1 0.104 0.134c0.046 0.034 0.1 0.059 0.163 0.074 0.064 0.015 0.133 0.023 0.209 0.023 0.092 0 0.167-0.013 0.226-0.039 0.060-0.026 0.104-0.062 0.133-0.108 0.029-0.046 0.044-0.098 0.044-0.156z"></path>
</svg>
